<?xml version="1.0" encoding="UTF-8"?>
<svg width="512" height="512" viewBox="0 0 512 512" fill="none" xmlns="http://www.w3.org/2000/svg">
  <!-- 渐变定义 -->
  <defs>
    <!-- 主背景渐变 -->
    <linearGradient id="bgGradient" x1="0%" y1="0%" x2="100%" y2="100%">
      <stop offset="0%" style="stop-color:#2196F3"/>
      <stop offset="100%" style="stop-color:#673AB7"/>
    </linearGradient>
    
    <!-- 光晕效果 -->
    <filter id="glow" x="-50%" y="-50%" width="200%" height="200%">
      <feGaussianBlur in="SourceGraphic" stdDeviation="4"/>
    </filter>
  </defs>

  <!-- 主背景 -->
  <rect width="512" height="512" rx="128" fill="url(#bgGradient)"/>
  
  <!-- 装饰性圆环 -->
  <circle cx="256" cy="256" r="200" stroke="rgba(255,255,255,0.1)" stroke-width="40"/>
  
  <!-- 数据记录图标 -->
  <g transform="translate(128, 128)">
    <!-- 主体卡片 -->
    <rect x="20" y="20" width="216" height="236" rx="20" fill="white" opacity="0.95"/>
    
    <!-- 数据行 -->
    <rect x="45" y="60" width="166" height="8" rx="4" fill="#2196F3" opacity="0.8"/>
    <rect x="45" y="90" width="140" height="8" rx="4" fill="#2196F3" opacity="0.6"/>
    <rect x="45" y="120" width="166" height="8" rx="4" fill="#2196F3" opacity="0.8"/>
    <rect x="45" y="150" width="120" height="8" rx="4" fill="#2196F3" opacity="0.6"/>
    <rect x="45" y="180" width="166" height="8" rx="4" fill="#2196F3" opacity="0.8"/>
    
    <!-- 搜索图标 -->
    <circle cx="200" cy="220" r="24" stroke="white" stroke-width="12" fill="none"/>
    <path d="M216 236l24 24" stroke="white" stroke-width="12" stroke-linecap="round"/>
  </g>
  
  <!-- 装饰性光点 -->
  <circle cx="400" cy="112" r="8" fill="white" opacity="0.6" filter="url(#glow)"/>
  <circle cx="112" cy="400" r="8" fill="white" opacity="0.6" filter="url(#glow)"/>
</svg> 