<svg xmlns="http://www.w3.org/2000/svg" width="512" height="512" fill="none" viewBox="0 0 512 512"><defs><linearGradient id="bgGradient" x1="0%" x2="100%" y1="0%" y2="100%"><stop offset="0%" style="stop-color:#2196f3"/><stop offset="100%" style="stop-color:#673ab7"/></linearGradient><filter id="glow" width="200%" height="200%" x="-50%" y="-50%"><feGaussianBlur in="SourceGraphic" stdDeviation="4"/></filter></defs><rect width="512" height="512" fill="url(#bgGradient)" rx="128"/><circle cx="256" cy="256" r="200" stroke="rgba(255,255,255,0.1)" stroke-width="40"/><g transform="translate(128, 128)"><rect width="216" height="236" x="20" y="20" fill="#fff" opacity=".95" rx="20"/><rect width="166" height="8" x="45" y="60" fill="#2196F3" opacity=".8" rx="4"/><rect width="140" height="8" x="45" y="90" fill="#2196F3" opacity=".6" rx="4"/><rect width="166" height="8" x="45" y="120" fill="#2196F3" opacity=".8" rx="4"/><rect width="120" height="8" x="45" y="150" fill="#2196F3" opacity=".6" rx="4"/><rect width="166" height="8" x="45" y="180" fill="#2196F3" opacity=".8" rx="4"/><circle cx="200" cy="220" r="24" fill="none" stroke="#fff" stroke-width="12"/><path stroke="#fff" stroke-linecap="round" stroke-width="12" d="M216 236l24 24"/></g><circle cx="400" cy="112" r="8" fill="#fff" filter="url(#glow)" opacity=".6"/><circle cx="112" cy="400" r="8" fill="#fff" filter="url(#glow)" opacity=".6"/></svg>